<svg width="16" height="16" viewBox="0 0 16 16" fill="none" xmlns="http://www.w3.org/2000/svg">
<mask id="mask0_2086_496" style="mask-type:luminance" maskUnits="userSpaceOnUse" x="0" y="0" width="16" height="16">
<path d="M0 1.90735e-06H16V16H0V1.90735e-06Z" fill="white"/>
</mask>
<g mask="url(#mask0_2086_496)">
<path d="M8.00001 15.4688C8.00001 15.4688 14.2206 11.8214 14.2206 6.68934C14.2206 3.25381 11.4355 0.46875 8.00001 0.46875C4.56448 0.46875 1.77942 3.25381 1.77942 6.68934C1.77942 11.8214 8.00001 15.4688 8.00001 15.4688Z" stroke="#878787" stroke-miterlimit="10"/>
<path d="M10.2622 6.59227C10.2622 7.84165 9.24939 8.85449 8.00001 8.85449C6.75061 8.85449 5.73779 7.84165 5.73779 6.59227C5.73779 5.3429 6.75061 4.33005 8.00001 4.33005C9.24939 4.33005 10.2622 5.3429 10.2622 6.59227Z" stroke="#878787" stroke-miterlimit="10"/>
</g>
</svg>
