<svg width="19" height="18" viewBox="0 0 19 18" fill="none" xmlns="http://www.w3.org/2000/svg">
<path d="M14.75 7.5H15.5C15.9142 7.5 16.25 7.83577 16.25 8.25V15.75C16.25 16.1642 15.9142 16.5 15.5 16.5H3.5C3.08579 16.5 2.75 16.1642 2.75 15.75V8.25C2.75 7.83577 3.08579 7.5 3.5 7.5H4.25V6.75C4.25 3.85051 6.60051 1.5 9.5 1.5C12.3995 1.5 14.75 3.85051 14.75 6.75V7.5ZM4.25 9V15H14.75V9H4.25ZM8.75 10.5H10.25V13.5H8.75V10.5ZM13.25 7.5V6.75C13.25 4.67894 11.571 3 9.5 3C7.42894 3 5.75 4.67894 5.75 6.75V7.5H13.25Z" fill="black"/>
</svg>
