<svg width="19" height="18" viewBox="0 0 19 18" fill="none" xmlns="http://www.w3.org/2000/svg">
<path d="M5.17632 4.83997C4.13826 5.91861 3.5 7.38477 3.5 9C3.5 12.3137 6.18629 15 9.5 15C10.3106 15 11.0837 14.8393 11.7891 14.5479C11.8753 13.985 11.6861 13.445 11.6087 13.256C11.4365 12.8363 10.8681 12.1187 9.91918 11.1231C9.6659 10.8568 9.68217 10.6526 9.7727 10.0457L9.78312 9.97717C9.84462 9.56145 9.94782 9.31567 11.3467 9.0936C12.0573 8.98095 12.2442 9.26498 12.5032 9.65827C12.5319 9.70185 12.5605 9.7446 12.5899 9.78743C12.8359 10.1473 13.0183 10.2296 13.2937 10.3548C13.417 10.4108 13.571 10.4813 13.7773 10.5985C14.2663 10.878 14.2663 11.1935 14.2663 11.8854V11.9639C14.2663 12.2576 14.2376 12.5154 14.1924 12.7394C15.0108 11.7139 15.5 10.4141 15.5 9C15.5 6.52567 14.0023 4.40115 11.8639 3.48362C11.449 3.7636 10.8798 4.16044 10.6812 4.4325C10.5797 4.57153 10.4361 5.28124 9.96927 5.33982C9.84695 5.35517 9.68285 5.34442 9.509 5.33323C9.04288 5.30294 8.40515 5.26205 8.201 5.81621C8.0714 6.1674 8.0486 7.12084 8.46793 7.61572C8.53505 7.69477 8.54803 7.84102 8.50243 8.00513C8.4425 8.2206 8.32145 8.3517 8.28372 8.37877C8.21142 8.33722 8.0672 8.16983 7.96953 8.0559C7.73416 7.78238 7.44054 7.44175 7.06098 7.33632C6.92296 7.29812 6.77124 7.2665 6.62411 7.23552C6.2123 7.1492 5.74582 7.05101 5.63744 6.81977C5.55831 6.6504 5.55866 6.41716 5.55897 6.17073C5.55897 5.8584 5.55897 5.50522 5.40597 5.16192C5.34684 5.02906 5.26767 4.92335 5.17632 4.83997ZM9.5 16.5C5.35786 16.5 2 13.1421 2 9C2 4.85786 5.35786 1.5 9.5 1.5C13.6421 1.5 17 4.85786 17 9C17 13.1421 13.6421 16.5 9.5 16.5Z" fill="white"/>
</svg>
