<svg width="20" height="21" viewBox="0 0 20 21" fill="none" xmlns="http://www.w3.org/2000/svg">
<path d="M15.0259 14.3473L18.5948 17.9162L17.4163 19.0947L13.8474 15.5258C12.5642 16.5525 10.9367 17.1666 9.16675 17.1666C5.02675 17.1666 1.66675 13.8066 1.66675 9.66663C1.66675 5.52663 5.02675 2.16663 9.16675 2.16663C13.3067 2.16663 16.6667 5.52663 16.6667 9.66663C16.6667 11.4366 16.0526 13.064 15.0259 14.3473ZM13.354 13.729C14.373 12.6788 15.0001 11.2463 15.0001 9.66663C15.0001 6.44371 12.3897 3.83329 9.16675 3.83329C5.94383 3.83329 3.33341 6.44371 3.33341 9.66663C3.33341 12.8895 5.94383 15.5 9.16675 15.5C10.7464 15.5 12.1789 14.8729 13.2291 13.8539L13.354 13.729Z" fill="black"/>
</svg>
