<svg width="18" height="18" viewBox="0 0 18 18" fill="none" xmlns="http://www.w3.org/2000/svg">
<path d="M6.5 0.833252V2.49992H11.5V0.833252H13.1667V2.49992H16.5C16.9603 2.49992 17.3333 2.87302 17.3333 3.33325V16.6666C17.3333 17.1268 16.9603 17.4999 16.5 17.4999H1.5C1.03977 17.4999 0.666668 17.1268 0.666668 16.6666V3.33325C0.666668 2.87302 1.03977 2.49992 1.5 2.49992H4.83333V0.833252H6.5ZM15.6667 9.16658H2.33333V15.8333H15.6667V9.16658ZM8.16667 10.8333V14.1666H4V10.8333H8.16667ZM4.83333 4.16659H2.33333V7.49992H15.6667V4.16659H13.1667V5.83325H11.5V4.16659H6.5V5.83325H4.83333V4.16659Z" fill="black"/>
</svg>
