<svg width="20" height="20" viewBox="0 0 20 20" fill="none" xmlns="http://www.w3.org/2000/svg">
<path d="M9.5 19.1066L4.1967 13.8033C1.26777 10.8743 1.26777 6.12563 4.1967 3.1967C7.12563 0.267767 11.8743 0.267767 14.8033 3.1967C17.7323 6.12563 17.7323 10.8743 14.8033 13.8033L9.5 19.1066ZM13.6248 12.6248C15.9028 10.3468 15.9028 6.65327 13.6248 4.37521C11.3468 2.09715 7.65327 2.09715 5.37521 4.37521C3.09715 6.65327 3.09715 10.3468 5.37521 12.6248L9.5 16.7496L13.6248 12.6248ZM9.5 10.1667C8.5795 10.1667 7.83333 9.4205 7.83333 8.5C7.83333 7.57952 8.5795 6.83333 9.5 6.83333C10.4205 6.83333 11.1667 7.57952 11.1667 8.5C11.1667 9.4205 10.4205 10.1667 9.5 10.1667Z" fill="black"/>
</svg>
