<svg width="20" height="20" viewBox="0 0 20 20" fill="none" xmlns="http://www.w3.org/2000/svg">
<path d="M2.78288 14.1669C2.42267 13.543 2.15231 12.8919 1.96777 12.2285C2.77817 11.815 3.3331 10.9724 3.3331 10.0002C3.3331 9.02883 2.779 8.18675 1.96961 7.77292C2.34187 6.43051 3.04881 5.18031 4.05395 4.15842C4.81725 4.65355 5.82446 4.71286 6.66643 4.22675C7.50841 3.74063 7.96064 2.83871 7.9135 1.93011C9.30108 1.57058 10.7372 1.58345 12.0859 1.93226C12.0396 2.84013 12.4917 3.74101 13.3331 4.22675C14.1751 4.71285 15.1822 4.65355 15.9455 4.15847C16.4277 4.64996 16.8564 5.20967 17.2167 5.83359C17.5768 6.4575 17.8472 7.10862 18.0317 7.77198C17.2213 8.18547 16.6664 9.02808 16.6664 10.0002C16.6664 10.9717 17.2205 11.8137 18.0299 12.2276C17.6577 13.57 16.9507 14.8202 15.9456 15.8421C15.1822 15.347 14.1751 15.2877 13.3331 15.7737C12.4911 16.2598 12.0389 17.1618 12.086 18.0704C10.6985 18.4299 9.26233 18.4171 7.91361 18.0682C7.95992 17.1603 7.50774 16.2595 6.66643 15.7737C5.82448 15.2877 4.81732 15.3469 4.05403 15.842C3.57181 15.3505 3.1431 14.7908 2.78288 14.1669ZM7.49976 14.3304C8.40925 14.8555 9.06242 15.6857 9.37525 16.6383C9.7905 16.6778 10.2085 16.6784 10.6238 16.6397C10.9365 15.6865 11.5898 14.8557 12.4997 14.3304C13.4097 13.805 14.4558 13.6547 15.4377 13.8604C15.6788 13.5201 15.8873 13.1577 16.0607 12.7784C15.3922 12.0312 14.9997 11.0504 14.9997 10.0002C14.9997 8.95008 15.3922 7.96941 16.0607 7.22216C15.974 7.03383 15.8782 6.8486 15.7732 6.66692C15.6683 6.48524 15.5558 6.30965 15.4361 6.14043C14.4547 6.34571 13.4092 6.1952 12.4997 5.67012C11.5902 5.14504 10.9372 4.31481 10.6242 3.36221C10.2091 3.3227 9.791 3.32213 9.37575 3.36085C9.063 4.31401 8.40966 5.14478 7.49976 5.67012C6.58983 6.19547 5.54371 6.34586 4.5619 6.14011C4.32071 6.48042 4.11219 6.84272 3.9388 7.22206C4.60734 7.96934 4.99977 8.95008 4.99977 10.0002C4.99977 11.0504 4.60736 12.0311 3.9388 12.7783C4.02556 12.9667 4.12136 13.1519 4.22626 13.3336C4.33116 13.5152 4.44367 13.6908 4.56343 13.8601C5.54481 13.6548 6.59031 13.8053 7.49976 14.3304ZM9.99975 12.5002C8.61908 12.5002 7.49976 11.381 7.49976 10.0002C7.49976 8.61958 8.61908 7.50026 9.99975 7.50026C11.3805 7.50026 12.4997 8.61958 12.4997 10.0002C12.4997 11.381 11.3805 12.5002 9.99975 12.5002ZM9.99975 10.8336C10.46 10.8336 10.8331 10.4605 10.8331 10.0002C10.8331 9.54 10.46 9.16691 9.99975 9.16691C9.5395 9.16691 9.16641 9.54 9.16641 10.0002C9.16641 10.4605 9.5395 10.8336 9.99975 10.8336Z" fill="black"/>
</svg>
