<svg width="20" height="20" viewBox="0 0 20 20" fill="none" xmlns="http://www.w3.org/2000/svg">
<path d="M10 18.3334C5.39763 18.3334 1.66667 14.6024 1.66667 10.0001C1.66667 5.39771 5.39763 1.66675 10 1.66675C14.6023 1.66675 18.3333 5.39771 18.3333 10.0001C18.3333 14.6024 14.6023 18.3334 10 18.3334ZM10 16.6667C13.6819 16.6667 16.6667 13.682 16.6667 10.0001C16.6667 6.31818 13.6819 3.33341 10 3.33341C6.3181 3.33341 3.33333 6.31818 3.33333 10.0001C3.33333 13.682 6.3181 16.6667 10 16.6667ZM10.8333 10.0001H14.1667V11.6667H9.16667V5.83341H10.8333V10.0001Z" fill="black"/>
</svg>
