<svg width="24" height="24" viewBox="0 0 24 24" fill="none" xmlns="http://www.w3.org/2000/svg">
<mask id="mask0_2479_1613" style="mask-type:luminance" maskUnits="userSpaceOnUse" x="0" y="0" width="23" height="24">
<path d="M23 0H0V24H23V0Z" fill="white"/>
<path d="M12.623 12C12.623 12.6472 12.1202 13.1719 11.5 13.1719C10.8798 13.1719 10.377 12.6472 10.377 12C10.377 11.3528 10.8798 10.8281 11.5 10.8281C12.1202 10.8281 12.623 11.3528 12.623 12Z" fill="white"/>
<path d="M17.1152 12C17.1152 12.6472 16.6124 13.1719 15.9922 13.1719C15.372 13.1719 14.8691 12.6472 14.8691 12C14.8691 11.3528 15.372 10.8281 15.9922 10.8281C16.6124 10.8281 17.1152 11.3528 17.1152 12Z" fill="white"/>
<path d="M8.13086 12C8.13086 12.6472 7.62805 13.1719 7.00781 13.1719C6.38758 13.1719 5.88477 12.6472 5.88477 12C5.88477 11.3528 6.38758 10.8281 7.00781 10.8281C7.62805 10.8281 8.13086 11.3528 8.13086 12Z" fill="white"/>
</mask>
<g mask="url(#mask0_2479_1613)">
<mask id="mask1_2479_1613" style="mask-type:luminance" maskUnits="userSpaceOnUse" x="0" y="0" width="23" height="24">
<path d="M0 1.90735e-06H23V24H0V1.90735e-06Z" fill="white"/>
</mask>
<g mask="url(#mask1_2479_1613)">
<path d="M11.5 0.937502C5.64493 0.937502 0.898438 5.89036 0.898438 12C0.898438 14.1509 1.48732 16.1579 2.50511 17.8564L0.898438 23.0625L5.8876 21.386C7.51534 22.448 9.43876 23.0625 11.5 23.0625C17.3551 23.0625 22.1016 18.1096 22.1016 12C22.1016 5.89036 17.3551 0.937502 11.5 0.937502Z" stroke="#32343E" stroke-miterlimit="10" stroke-linecap="round" stroke-linejoin="round"/>
<path d="M12.623 12C12.623 12.6472 12.1202 13.1719 11.5 13.1719C10.8798 13.1719 10.377 12.6472 10.377 12C10.377 11.3528 10.8798 10.8281 11.5 10.8281C12.1202 10.8281 12.623 11.3528 12.623 12Z" fill="#32343E"/>
<path d="M17.1152 12C17.1152 12.6472 16.6124 13.1719 15.9922 13.1719C15.372 13.1719 14.8691 12.6472 14.8691 12C14.8691 11.3528 15.372 10.8281 15.9922 10.8281C16.6124 10.8281 17.1152 11.3528 17.1152 12Z" fill="#32343E"/>
<path d="M8.13086 12C8.13086 12.6472 7.62805 13.1719 7.00781 13.1719C6.38758 13.1719 5.88477 12.6472 5.88477 12C5.88477 11.3528 6.38758 10.8281 7.00781 10.8281C7.62805 10.8281 8.13086 11.3528 8.13086 12Z" fill="#32343E"/>
</g>
</g>
</svg>
