<svg width="20" height="20" viewBox="0 0 20 20" fill="none" xmlns="http://www.w3.org/2000/svg">
<g clip-path="url(#clip0_2088_2720)">
<mask id="mask0_2088_2720" style="mask-type:luminance" maskUnits="userSpaceOnUse" x="0" y="0" width="20" height="20">
<path d="M0 1.90735e-06H20V20H0V1.90735e-06Z" fill="white"/>
</mask>
<g mask="url(#mask0_2088_2720)">
<path d="M19.4141 10C19.4141 15.1993 15.1993 19.4141 10 19.4141C4.80074 19.4141 0.585938 15.1993 0.585938 10C0.585938 4.80074 4.80074 0.585939 10 0.585939C15.1993 0.585939 19.4141 4.80074 19.4141 10Z" stroke="#32343E" stroke-miterlimit="10"/>
<path d="M10 0.58589V19.4119" stroke="#32343E" stroke-miterlimit="10"/>
<path d="M3.85018 2.93945C3.85018 2.93945 7.21319 3.33844 7.27018 6.41648C7.30041 8.04902 6.41639 9.55875 5.52346 10.8621C4.86123 11.8287 4.0594 12.7202 3.58705 13.8042C3.21846 14.6501 3.05299 15.6441 2.99518 16.5625" stroke="#32343E" stroke-miterlimit="10"/>
<path d="M16.1499 2.93945C16.1499 2.93945 12.7869 3.33844 12.7299 6.41648C12.6996 8.04902 13.5837 9.55875 14.4766 10.8621C15.1388 11.8287 15.9407 12.7202 16.413 13.8042C16.7816 14.6501 16.9471 15.6441 17.0049 16.5625" stroke="#32343E" stroke-miterlimit="10"/>
<path d="M0.641846 8.96948C3.21372 7.7187 6.30571 6.96128 9.98462 6.96128C13.4112 6.96128 16.8329 7.61831 19.3274 8.71909" stroke="#32343E" stroke-miterlimit="10"/>
</g>
</g>
<defs>
<clipPath id="clip0_2088_2720">
<rect width="20" height="20" fill="white"/>
</clipPath>
</defs>
</svg>
