<svg width="20" height="20" viewBox="0 0 20 20" fill="none" xmlns="http://www.w3.org/2000/svg">
<g clip-path="url(#clip0_2088_2785)">
<path d="M14.3156 7.6259L14.593 7.90324C15.0525 8.36277 15.0525 9.10777 14.593 9.5673L4.89539 19.2648C4.43586 19.7244 3.69086 19.7244 3.23133 19.2648L0.735273 16.7688C0.275742 16.3093 0.275742 15.5643 0.735273 15.1047L10.4329 5.40715C10.8923 4.94762 11.6374 4.94762 12.0969 5.40715L12.3743 5.68449" stroke="#32343E" stroke-miterlimit="10" stroke-linecap="round" stroke-linejoin="round"/>
<path d="M19.4371 1.67232L18.3277 0.562949C18.0979 0.333184 17.7254 0.333184 17.4957 0.562949L12.3742 5.6844L11.4035 8.59647L14.3156 7.62576L19.4371 2.50436C19.6668 2.27459 19.6668 1.90209 19.4371 1.67232Z" stroke="#32343E" stroke-miterlimit="10" stroke-linecap="round" stroke-linejoin="round"/>
<path d="M15.1383 2.92041L17.0797 4.86178" stroke="#32343E" stroke-miterlimit="10" stroke-linecap="round" stroke-linejoin="round"/>
<path d="M16.525 1.53369L18.4664 3.4751" stroke="#32343E" stroke-miterlimit="10" stroke-linecap="round" stroke-linejoin="round"/>
<path d="M13.7516 4.30713L15.693 6.24854" stroke="#32343E" stroke-miterlimit="10" stroke-linecap="round" stroke-linejoin="round"/>
<path d="M7.94614 16.2138L3.78607 12.0537L2.12204 13.7177L6.28211 17.8778L7.94614 16.2138Z" stroke="#32343E" stroke-miterlimit="10" stroke-linecap="round" stroke-linejoin="round"/>
<path d="M16.2755 19.6094C17.2941 19.6094 18.2056 19.1524 18.8167 18.4327C19.3113 17.8515 19.6094 17.098 19.6094 16.2755C19.6094 14.4344 18.1166 12.9417 16.2755 12.9417C14.4344 12.9417 12.9417 14.4344 12.9417 16.2755C12.9417 17.098 13.2397 17.8515 13.7343 18.4327C14.3454 19.1524 15.2569 19.6094 16.2755 19.6094Z" stroke="#32343E" stroke-miterlimit="10" stroke-linecap="round" stroke-linejoin="round"/>
<path d="M18.8167 18.4328C17.4867 16.8662 15.0684 16.8615 13.7343 18.4328" stroke="#32343E" stroke-miterlimit="10" stroke-linecap="round" stroke-linejoin="round"/>
<path d="M18.8167 14.1184C18.2056 14.8381 17.2941 15.295 16.2755 15.295C15.2569 15.295 14.3454 14.8381 13.7343 14.1184" stroke="#32343E" stroke-miterlimit="10" stroke-linecap="round" stroke-linejoin="round"/>
</g>
<defs>
<clipPath id="clip0_2088_2785">
<rect width="20" height="20" fill="white"/>
</clipPath>
</defs>
</svg>
