<svg width="20" height="20" viewBox="0 0 20 20" fill="none" xmlns="http://www.w3.org/2000/svg">
<g clip-path="url(#clip0_2088_2799)">
<path d="M10 19.4141C15.1992 19.4141 19.4141 15.1992 19.4141 10C19.4141 4.80076 15.1992 0.585938 10 0.585938C4.80076 0.585938 0.585938 4.80076 0.585938 10C0.585938 15.1992 4.80076 19.4141 10 19.4141Z" stroke="#32343E" stroke-miterlimit="10" stroke-linecap="round" stroke-linejoin="round"/>
<path d="M9.99371 6.05737L6.18402 8.82081L7.63918 13.2922H12.3482L13.8034 8.82081L9.99371 6.05737Z" stroke="#32343E" stroke-miterlimit="10" stroke-linecap="round" stroke-linejoin="round"/>
<path d="M17.6119 15.5403H13.7747L12.6358 19.04" stroke="#32343E" stroke-miterlimit="10" stroke-linecap="round" stroke-linejoin="round"/>
<path d="M2.38806 15.5403H5.97802L7.08947 18.9555" stroke="#32343E" stroke-miterlimit="10" stroke-linecap="round" stroke-linejoin="round"/>
<path d="M6.88184 1.11896L9.97449 3.36232L13.0878 1.104" stroke="#32343E" stroke-miterlimit="10" stroke-linecap="round" stroke-linejoin="round"/>
<path d="M17.5953 4.44214L16.414 8.07198L19.414 10.2482" stroke="#32343E" stroke-miterlimit="10" stroke-linecap="round" stroke-linejoin="round"/>
<path d="M2.53859 4.25879L3.67859 7.7618L0.585938 10.0052" stroke="#32343E" stroke-miterlimit="10" stroke-linecap="round" stroke-linejoin="round"/>
<path d="M9.97449 3.3623L9.99371 6.05738" stroke="#32343E" stroke-miterlimit="10" stroke-linecap="round" stroke-linejoin="round"/>
<path d="M3.67859 7.76196L6.18402 8.82091" stroke="#32343E" stroke-miterlimit="10" stroke-linecap="round" stroke-linejoin="round"/>
<path d="M16.414 8.07202L13.8033 8.82097" stroke="#32343E" stroke-miterlimit="10" stroke-linecap="round" stroke-linejoin="round"/>
<path d="M12.3482 13.2922L13.7748 15.5403" stroke="#32343E" stroke-miterlimit="10" stroke-linecap="round" stroke-linejoin="round"/>
<path d="M5.97803 15.5403L7.63916 13.2922" stroke="#32343E" stroke-miterlimit="10" stroke-linecap="round" stroke-linejoin="round"/>
</g>
<defs>
<clipPath id="clip0_2088_2799">
<rect width="20" height="20" fill="white"/>
</clipPath>
</defs>
</svg>
