<svg width="20" height="20" viewBox="0 0 20 20" fill="none" xmlns="http://www.w3.org/2000/svg">
<g clip-path="url(#clip0_2088_2816)">
<path d="M7.20792 14.8636C7.86124 14.2103 8.8373 14.0024 9.70066 14.3315C11.9804 15.2006 14.6188 14.7372 16.6866 12.6695L17.1005 12.2555C19.9701 9.38591 20.2019 4.96525 17.6183 2.38166C15.0346 -0.201937 10.614 0.0298209 7.74445 2.89939L7.33046 3.31338C5.26273 5.38111 4.79937 8.01955 5.66847 10.2993C5.99761 11.1626 5.78968 12.1386 5.13632 12.792" stroke="#32343E" stroke-miterlimit="10"/>
<path d="M8.29949 9.62891L0.828674 17.0997L2.90028 19.1713L10.3711 11.7005" stroke="#32343E" stroke-miterlimit="10"/>
<path d="M5.39804 6.72729L13.2726 14.6018" stroke="#32343E" stroke-miterlimit="10"/>
<path d="M17.6562 19.4141C18.627 19.4141 19.414 18.6271 19.414 17.6562C19.414 16.6854 18.627 15.8984 17.6562 15.8984C16.6854 15.8984 15.8984 16.6854 15.8984 17.6562C15.8984 18.6271 16.6854 19.4141 17.6562 19.4141Z" stroke="#32343E" stroke-miterlimit="10"/>
</g>
<defs>
<clipPath id="clip0_2088_2816">
<rect width="20" height="20" fill="white"/>
</clipPath>
</defs>
</svg>
