<svg width="21" height="20" viewBox="0 0 21 20" fill="none" xmlns="http://www.w3.org/2000/svg">
<g clip-path="url(#clip0_2088_2701)">
<path d="M17.8075 10.307C20.4117 7.70277 20.8295 3.89827 18.7406 1.80939C16.6517 -0.279494 12.8472 0.13825 10.243 2.74245C7.63883 5.34664 7.22108 9.15114 9.30997 11.24C11.3989 13.3289 15.2033 12.9112 17.8075 10.307Z" stroke="#32343E" stroke-miterlimit="10" stroke-linecap="round" stroke-linejoin="round"/>
<path d="M1.35118 19.1432L1.30675 19.0988C0.803674 18.5957 0.803674 17.7801 1.30675 17.2771L5.36115 13.2227L7.22732 15.0888L3.17292 19.1432C2.66984 19.6463 1.85422 19.6463 1.35118 19.1432Z" stroke="#32343E" stroke-miterlimit="10" stroke-linecap="round" stroke-linejoin="round"/>
<path d="M7.99793 7.38745L6.32788 14.1888L13.0485 12.5554" stroke="#32343E" stroke-miterlimit="10" stroke-linecap="round" stroke-linejoin="round"/>
<path d="M8.84009 4.61499L15.9257 11.7006" stroke="#32343E" stroke-miterlimit="10" stroke-linecap="round" stroke-linejoin="round"/>
<path d="M12.1157 1.33936L19.2144 8.43807" stroke="#32343E" stroke-miterlimit="10" stroke-linecap="round" stroke-linejoin="round"/>
<path d="M19.8214 3.61182L11.095 12.3382" stroke="#32343E" stroke-miterlimit="10" stroke-linecap="round" stroke-linejoin="round"/>
<path d="M16.8543 0.697266L8.1955 9.35612" stroke="#32343E" stroke-miterlimit="10" stroke-linecap="round" stroke-linejoin="round"/>
<path d="M3.70837 14.8887L5.5679 16.7482" stroke="#32343E" stroke-miterlimit="10" stroke-linecap="round" stroke-linejoin="round"/>
<path d="M17.0891 19.511C18.7357 19.511 20.0705 18.1761 20.0705 16.5295C20.0705 14.8829 18.7357 13.5481 17.0891 13.5481C15.4424 13.5481 14.1076 14.8829 14.1076 16.5295C14.1076 18.1761 15.4424 19.511 17.0891 19.511Z" stroke="#32343E" stroke-miterlimit="10" stroke-linecap="round" stroke-linejoin="round"/>
<path d="M17.0959 19.5109C17.0831 19.5109 17.0704 19.5107 17.0577 19.5105C16.0078 19.4868 15.2557 18.4834 15.5061 17.4635C15.7438 16.4958 16.1419 15.7481 16.1419 15.3423C16.1419 14.7726 15.68 14.3108 15.1104 14.3108" stroke="#32343E" stroke-miterlimit="10" stroke-linecap="round" stroke-linejoin="round"/>
<path d="M17.0762 19.5109C17.0889 19.5109 17.1017 19.5107 17.1144 19.5105C18.1642 19.4868 18.9164 18.4834 18.6659 17.4635C18.4283 16.4958 18.0302 15.7481 18.0302 15.3423C18.0302 14.7726 18.492 14.3108 19.0617 14.3108" stroke="#32343E" stroke-miterlimit="10" stroke-linecap="round" stroke-linejoin="round"/>
</g>
<defs>
<clipPath id="clip0_2088_2701">
<rect width="20" height="20" fill="white" transform="translate(0.5)"/>
</clipPath>
</defs>
</svg>
